<mxfile host="app.diagrams.net" modified="2021-09-25T14:38:03.311Z" agent="5.0 (Windows NT 10.0; Win64; x64) AppleWebKit/537.36 (KHTML, like Gecko) Chrome/94.0.4606.61 Safari/537.36" etag="IrYVlfT7-wH-zkX7_AZp" version="15.3.0" type="github">
  <diagram id="C5RBs43oDa-KdzZeNtuy" name="Page-1">
    <mxGraphModel dx="731" dy="396" grid="1" gridSize="10" guides="1" tooltips="1" connect="1" arrows="1" fold="1" page="1" pageScale="1" pageWidth="827" pageHeight="1169" math="0" shadow="0">
      <root>
        <mxCell id="WIyWlLk6GJQsqaUBKTNV-0" />
        <mxCell id="WIyWlLk6GJQsqaUBKTNV-1" parent="WIyWlLk6GJQsqaUBKTNV-0" />
        <mxCell id="e3VsoY0m1QFpJ2-WcFTY-29" value="Вход" style="rounded=1;whiteSpace=wrap;html=1;fontSize=12;glass=0;strokeWidth=1;shadow=0;arcSize=50;" vertex="1" parent="WIyWlLk6GJQsqaUBKTNV-1">
          <mxGeometry x="119" y="40" width="120" height="40" as="geometry" />
        </mxCell>
        <mxCell id="e3VsoY0m1QFpJ2-WcFTY-30" value="x&amp;lt;=1.1" style="rhombus;whiteSpace=wrap;html=1;shadow=0;fontFamily=Helvetica;fontSize=12;align=center;strokeWidth=1;spacing=6;spacingTop=-4;" vertex="1" parent="WIyWlLk6GJQsqaUBKTNV-1">
          <mxGeometry x="119" y="200" width="120" height="40" as="geometry" />
        </mxCell>
        <mxCell id="e3VsoY0m1QFpJ2-WcFTY-31" value="" style="endArrow=classic;html=1;exitX=0.5;exitY=1;exitDx=0;exitDy=0;" edge="1" parent="WIyWlLk6GJQsqaUBKTNV-1" source="e3VsoY0m1QFpJ2-WcFTY-29">
          <mxGeometry width="50" height="50" relative="1" as="geometry">
            <mxPoint x="309" y="150" as="sourcePoint" />
            <mxPoint x="179" y="120" as="targetPoint" />
          </mxGeometry>
        </mxCell>
        <mxCell id="e3VsoY0m1QFpJ2-WcFTY-32" value="x:=0.6" style="rounded=0;whiteSpace=wrap;html=1;" vertex="1" parent="WIyWlLk6GJQsqaUBKTNV-1">
          <mxGeometry x="119" y="120" width="120" height="40" as="geometry" />
        </mxCell>
        <mxCell id="e3VsoY0m1QFpJ2-WcFTY-33" value="" style="endArrow=classic;html=1;exitX=0.5;exitY=1;exitDx=0;exitDy=0;entryX=0.5;entryY=0;entryDx=0;entryDy=0;" edge="1" parent="WIyWlLk6GJQsqaUBKTNV-1" source="e3VsoY0m1QFpJ2-WcFTY-32" target="e3VsoY0m1QFpJ2-WcFTY-30">
          <mxGeometry width="50" height="50" relative="1" as="geometry">
            <mxPoint x="309" y="150" as="sourcePoint" />
            <mxPoint x="359" y="100" as="targetPoint" />
          </mxGeometry>
        </mxCell>
        <mxCell id="e3VsoY0m1QFpJ2-WcFTY-34" value="" style="endArrow=classic;html=1;exitX=0.5;exitY=1;exitDx=0;exitDy=0;" edge="1" parent="WIyWlLk6GJQsqaUBKTNV-1" source="e3VsoY0m1QFpJ2-WcFTY-30">
          <mxGeometry width="50" height="50" relative="1" as="geometry">
            <mxPoint x="309" y="320" as="sourcePoint" />
            <mxPoint x="179" y="280" as="targetPoint" />
          </mxGeometry>
        </mxCell>
        <mxCell id="e3VsoY0m1QFpJ2-WcFTY-35" value="Выход" style="rounded=1;whiteSpace=wrap;html=1;fontSize=12;glass=0;strokeWidth=1;shadow=0;arcSize=50;" vertex="1" parent="WIyWlLk6GJQsqaUBKTNV-1">
          <mxGeometry x="119" y="280" width="120" height="40" as="geometry" />
        </mxCell>
        <mxCell id="e3VsoY0m1QFpJ2-WcFTY-36" value="" style="endArrow=classic;html=1;exitX=1;exitY=0.5;exitDx=0;exitDy=0;" edge="1" parent="WIyWlLk6GJQsqaUBKTNV-1" source="e3VsoY0m1QFpJ2-WcFTY-30">
          <mxGeometry width="50" height="50" relative="1" as="geometry">
            <mxPoint x="309" y="320" as="sourcePoint" />
            <mxPoint x="339" y="280" as="targetPoint" />
            <Array as="points">
              <mxPoint x="339" y="220" />
            </Array>
          </mxGeometry>
        </mxCell>
        <mxCell id="e3VsoY0m1QFpJ2-WcFTY-37" value="n:=10" style="rounded=0;whiteSpace=wrap;html=1;" vertex="1" parent="WIyWlLk6GJQsqaUBKTNV-1">
          <mxGeometry x="279" y="280" width="120" height="40" as="geometry" />
        </mxCell>
        <mxCell id="e3VsoY0m1QFpJ2-WcFTY-38" value="n&amp;lt;=15" style="rhombus;whiteSpace=wrap;html=1;shadow=0;fontFamily=Helvetica;fontSize=12;align=center;strokeWidth=1;spacing=6;spacingTop=-4;" vertex="1" parent="WIyWlLk6GJQsqaUBKTNV-1">
          <mxGeometry x="279" y="360" width="120" height="40" as="geometry" />
        </mxCell>
        <mxCell id="e3VsoY0m1QFpJ2-WcFTY-39" value="" style="endArrow=classic;html=1;exitX=0.5;exitY=1;exitDx=0;exitDy=0;entryX=0.5;entryY=0;entryDx=0;entryDy=0;" edge="1" parent="WIyWlLk6GJQsqaUBKTNV-1" source="e3VsoY0m1QFpJ2-WcFTY-37" target="e3VsoY0m1QFpJ2-WcFTY-38">
          <mxGeometry width="50" height="50" relative="1" as="geometry">
            <mxPoint x="309" y="320" as="sourcePoint" />
            <mxPoint x="359" y="270" as="targetPoint" />
          </mxGeometry>
        </mxCell>
        <mxCell id="e3VsoY0m1QFpJ2-WcFTY-40" value="" style="endArrow=classic;html=1;exitX=0.5;exitY=1;exitDx=0;exitDy=0;" edge="1" parent="WIyWlLk6GJQsqaUBKTNV-1" source="e3VsoY0m1QFpJ2-WcFTY-38">
          <mxGeometry width="50" height="50" relative="1" as="geometry">
            <mxPoint x="309" y="400" as="sourcePoint" />
            <mxPoint x="179" y="180" as="targetPoint" />
            <Array as="points">
              <mxPoint x="339" y="440" />
              <mxPoint x="39" y="440" />
              <mxPoint x="39" y="180" />
            </Array>
          </mxGeometry>
        </mxCell>
        <mxCell id="e3VsoY0m1QFpJ2-WcFTY-41" value="" style="endArrow=classic;html=1;exitX=1;exitY=0.5;exitDx=0;exitDy=0;entryX=0.5;entryY=0;entryDx=0;entryDy=0;" edge="1" parent="WIyWlLk6GJQsqaUBKTNV-1" target="e3VsoY0m1QFpJ2-WcFTY-42">
          <mxGeometry width="50" height="50" relative="1" as="geometry">
            <mxPoint x="399" y="380" as="sourcePoint" />
            <mxPoint x="439" y="420" as="targetPoint" />
            <Array as="points">
              <mxPoint x="439" y="380" />
            </Array>
          </mxGeometry>
        </mxCell>
        <mxCell id="e3VsoY0m1QFpJ2-WcFTY-42" value="sum:=0" style="rounded=0;whiteSpace=wrap;html=1;" vertex="1" parent="WIyWlLk6GJQsqaUBKTNV-1">
          <mxGeometry x="379" y="440" width="120" height="40" as="geometry" />
        </mxCell>
        <mxCell id="e3VsoY0m1QFpJ2-WcFTY-43" value="k:=1" style="rounded=0;whiteSpace=wrap;html=1;" vertex="1" parent="WIyWlLk6GJQsqaUBKTNV-1">
          <mxGeometry x="379" y="520" width="120" height="40" as="geometry" />
        </mxCell>
        <mxCell id="e3VsoY0m1QFpJ2-WcFTY-44" value="" style="endArrow=classic;html=1;exitX=0.5;exitY=1;exitDx=0;exitDy=0;entryX=0.5;entryY=0;entryDx=0;entryDy=0;" edge="1" parent="WIyWlLk6GJQsqaUBKTNV-1" source="e3VsoY0m1QFpJ2-WcFTY-42" target="e3VsoY0m1QFpJ2-WcFTY-43">
          <mxGeometry width="50" height="50" relative="1" as="geometry">
            <mxPoint x="309" y="560" as="sourcePoint" />
            <mxPoint x="359" y="510" as="targetPoint" />
          </mxGeometry>
        </mxCell>
        <mxCell id="e3VsoY0m1QFpJ2-WcFTY-45" value="k&amp;lt;=n" style="rhombus;whiteSpace=wrap;html=1;shadow=0;fontFamily=Helvetica;fontSize=12;align=center;strokeWidth=1;spacing=6;spacingTop=-4;" vertex="1" parent="WIyWlLk6GJQsqaUBKTNV-1">
          <mxGeometry x="379" y="600" width="120" height="40" as="geometry" />
        </mxCell>
        <mxCell id="e3VsoY0m1QFpJ2-WcFTY-46" value="" style="endArrow=classic;html=1;exitX=0.5;exitY=1;exitDx=0;exitDy=0;entryX=0.5;entryY=0;entryDx=0;entryDy=0;" edge="1" parent="WIyWlLk6GJQsqaUBKTNV-1" source="e3VsoY0m1QFpJ2-WcFTY-43" target="e3VsoY0m1QFpJ2-WcFTY-45">
          <mxGeometry width="50" height="50" relative="1" as="geometry">
            <mxPoint x="509" y="490" as="sourcePoint" />
            <mxPoint x="509" y="530" as="targetPoint" />
          </mxGeometry>
        </mxCell>
        <mxCell id="e3VsoY0m1QFpJ2-WcFTY-47" value="" style="endArrow=classic;html=1;exitX=0.5;exitY=1;exitDx=0;exitDy=0;entryX=0.5;entryY=0;entryDx=0;entryDy=0;" edge="1" parent="WIyWlLk6GJQsqaUBKTNV-1" source="e3VsoY0m1QFpJ2-WcFTY-45" target="e3VsoY0m1QFpJ2-WcFTY-49">
          <mxGeometry width="50" height="50" relative="1" as="geometry">
            <mxPoint x="309" y="560" as="sourcePoint" />
            <mxPoint x="489" y="670" as="targetPoint" />
          </mxGeometry>
        </mxCell>
        <mxCell id="e3VsoY0m1QFpJ2-WcFTY-48" value="" style="endArrow=classic;html=1;exitX=1;exitY=0.5;exitDx=0;exitDy=0;entryX=0.5;entryY=0;entryDx=0;entryDy=0;" edge="1" parent="WIyWlLk6GJQsqaUBKTNV-1" source="e3VsoY0m1QFpJ2-WcFTY-45" target="e3VsoY0m1QFpJ2-WcFTY-50">
          <mxGeometry width="50" height="50" relative="1" as="geometry">
            <mxPoint x="309" y="560" as="sourcePoint" />
            <mxPoint x="649" y="650" as="targetPoint" />
            <Array as="points">
              <mxPoint x="719" y="620" />
            </Array>
          </mxGeometry>
        </mxCell>
        <mxCell id="e3VsoY0m1QFpJ2-WcFTY-49" value="f:= Sum + exp(ln(exp(n*x)/2+exp(ln(n*x)/3))/3)" style="rounded=0;whiteSpace=wrap;html=1;" vertex="1" parent="WIyWlLk6GJQsqaUBKTNV-1">
          <mxGeometry x="302" y="680" width="274" height="40" as="geometry" />
        </mxCell>
        <mxCell id="e3VsoY0m1QFpJ2-WcFTY-50" value="sum:=sum+exp(ln(exp(1.2*k)+(k-10)/(k+30))/k)/sqrt(exp(ln(n+5)/3)*k) + ln(sqrt(n*x))" style="rounded=0;whiteSpace=wrap;html=1;" vertex="1" parent="WIyWlLk6GJQsqaUBKTNV-1">
          <mxGeometry x="599" y="680" width="240" height="40" as="geometry" />
        </mxCell>
        <mxCell id="e3VsoY0m1QFpJ2-WcFTY-51" value="k:=k+1" style="rounded=0;whiteSpace=wrap;html=1;" vertex="1" parent="WIyWlLk6GJQsqaUBKTNV-1">
          <mxGeometry x="659" y="760" width="120" height="40" as="geometry" />
        </mxCell>
        <mxCell id="e3VsoY0m1QFpJ2-WcFTY-52" value="" style="endArrow=classic;html=1;exitX=0.5;exitY=1;exitDx=0;exitDy=0;entryX=0.5;entryY=0;entryDx=0;entryDy=0;" edge="1" parent="WIyWlLk6GJQsqaUBKTNV-1" source="e3VsoY0m1QFpJ2-WcFTY-50" target="e3VsoY0m1QFpJ2-WcFTY-51">
          <mxGeometry width="50" height="50" relative="1" as="geometry">
            <mxPoint x="509" y="570" as="sourcePoint" />
            <mxPoint x="509" y="610" as="targetPoint" />
          </mxGeometry>
        </mxCell>
        <mxCell id="e3VsoY0m1QFpJ2-WcFTY-53" value="Вывод x, n, f" style="shape=parallelogram;perimeter=parallelogramPerimeter;whiteSpace=wrap;html=1;fixedSize=1;" vertex="1" parent="WIyWlLk6GJQsqaUBKTNV-1">
          <mxGeometry x="369" y="760" width="140" height="40" as="geometry" />
        </mxCell>
        <mxCell id="e3VsoY0m1QFpJ2-WcFTY-54" value="n:=n+1" style="rounded=0;whiteSpace=wrap;html=1;" vertex="1" parent="WIyWlLk6GJQsqaUBKTNV-1">
          <mxGeometry x="379" y="840" width="120" height="40" as="geometry" />
        </mxCell>
        <mxCell id="e3VsoY0m1QFpJ2-WcFTY-55" value="" style="endArrow=classic;html=1;exitX=0.5;exitY=1;exitDx=0;exitDy=0;entryX=0.5;entryY=0;entryDx=0;entryDy=0;" edge="1" parent="WIyWlLk6GJQsqaUBKTNV-1" source="e3VsoY0m1QFpJ2-WcFTY-49" target="e3VsoY0m1QFpJ2-WcFTY-53">
          <mxGeometry width="50" height="50" relative="1" as="geometry">
            <mxPoint x="669" y="730" as="sourcePoint" />
            <mxPoint x="479" y="740" as="targetPoint" />
          </mxGeometry>
        </mxCell>
        <mxCell id="e3VsoY0m1QFpJ2-WcFTY-56" value="" style="endArrow=classic;html=1;exitX=0.5;exitY=1;exitDx=0;exitDy=0;entryX=0.5;entryY=0;entryDx=0;entryDy=0;" edge="1" parent="WIyWlLk6GJQsqaUBKTNV-1" source="e3VsoY0m1QFpJ2-WcFTY-53" target="e3VsoY0m1QFpJ2-WcFTY-54">
          <mxGeometry width="50" height="50" relative="1" as="geometry">
            <mxPoint x="519" y="800" as="sourcePoint" />
            <mxPoint x="569" y="750" as="targetPoint" />
          </mxGeometry>
        </mxCell>
        <mxCell id="e3VsoY0m1QFpJ2-WcFTY-57" value="" style="endArrow=classic;html=1;exitX=0.5;exitY=1;exitDx=0;exitDy=0;" edge="1" parent="WIyWlLk6GJQsqaUBKTNV-1" source="e3VsoY0m1QFpJ2-WcFTY-51">
          <mxGeometry width="50" height="50" relative="1" as="geometry">
            <mxPoint x="519" y="800" as="sourcePoint" />
            <mxPoint x="439" y="580" as="targetPoint" />
            <Array as="points">
              <mxPoint x="719" y="840" />
              <mxPoint x="879" y="840" />
              <mxPoint x="879" y="580" />
            </Array>
          </mxGeometry>
        </mxCell>
        <mxCell id="e3VsoY0m1QFpJ2-WcFTY-58" value="" style="endArrow=classic;html=1;exitX=0.5;exitY=1;exitDx=0;exitDy=0;" edge="1" parent="WIyWlLk6GJQsqaUBKTNV-1" source="e3VsoY0m1QFpJ2-WcFTY-54">
          <mxGeometry width="50" height="50" relative="1" as="geometry">
            <mxPoint x="519" y="720" as="sourcePoint" />
            <mxPoint x="339" y="340" as="targetPoint" />
            <Array as="points">
              <mxPoint x="439" y="920" />
              <mxPoint x="919" y="920" />
              <mxPoint x="919" y="340" />
            </Array>
          </mxGeometry>
        </mxCell>
      </root>
    </mxGraphModel>
  </diagram>
</mxfile>
